# xmcd
#
# Track frame offsets:
#	150
#	17225
#	41904
#	60893
#	87674
#	109175
#	127754
#	151028
#	170258
#	199781
#	220021
#	246570
#
# Disc length: 3510 seconds
#
# Revision: 3
# Processed by: cddbd v1.5.2PL0 Copyright (c) Steve Scherf et al.
# Submitted via: audiograbber 1.83.01
#
DISCID=9c0db40c
DTITLE=Chris Rea - Road Songs For Lovers
DYEAR=2017
DGENRE=Soft Rock
TTITLE0=Happy On The Road
TTITLE1=Nothing Left Behind
TTITLE2=Road Songs For Lovers
TTITLE3=Money
TTITLE4=Two Lost Souls
TTITLE5=Rock My Soul
TTITLE6=Moving On
TTITLE7=The Road Ahead
TTITLE8=Last Train
TTITLE9=Angel Of Love
TTITLE10=Breaking Point
TTITLE11=Beautiful
EXTD=
EXTT0=
EXTT1=
EXTT2=
EXTT3=
EXTT4=
EXTT5=
EXTT6=
EXTT7=
EXTT8=
EXTT9=
EXTT10=
EXTT11=
PLAYORDER=
